<svg width="20" height="20" viewBox="0 0 20 20" fill="none" xmlns="http://www.w3.org/2000/svg">
    <g id="Frame">
        <path id="Vector" d="M10 0.25C4.475 0.25 0 4.725 0 10.25C0 14.775 2.875 18.5 6.875 19.875C7.375 19.975 7.575 19.7 7.575 19.475C7.575 19.275 7.575 18.575 7.575 17.625C5.025 18.075 4.425 16.6 4.225 16.075C4.075 15.7 3.575 14.775 3.175 14.525C2.875 14.35 2.425 13.925 3.175 13.925C3.875 13.925 4.375 14.625 4.575 14.925C5.475 16.425 6.875 15.975 7.425 15.725C7.525 15.075 7.825 14.65 8.15 14.4C5.95 14.175 3.625 13.35 3.625 9.6C3.625 8.55 4.025 7.725 4.625 7.05C4.525 6.8 4.175 5.725 4.725 4.375C4.725 4.375 5.475 4.125 7.575 5.475C8.275 5.275 9.025 5.175 9.775 5.175C10.525 5.175 11.275 5.275 11.975 5.475C14.075 4.125 14.825 4.375 14.825 4.375C15.375 5.725 15.025 6.8 14.925 7.05C15.525 7.725 15.925 8.55 15.925 9.6C15.925 13.375 13.6 14.175 11.4 14.4C11.775 14.675 12.075 15.225 12.075 16.1C12.075 17.35 12.075 18.375 12.075 19.475C12.075 19.7 12.275 19.975 12.775 19.875C16.775 18.5 19.65 14.775 19.65 10.25C19.65 4.725 15.175 0.25 10 0.25Z" fill="white"/>
    </g>
</svg>

