<svg width="20" height="20" viewBox="0 0 24 24" fill="none" xmlns="http://www.w3.org/2000/svg">
    <g id="Frame">
        <path id="Vector" d="M4.984 3.5C4.984 4.825 3.891 5.875 2.5 5.875 1.109 5.875 0 4.825 0 3.5 0 2.175 1.109 1.125 2.5 1.125 3.891 1.125 4.984 2.175 4.984 3.5zM0.264 22.27H4.736V7.779H0.264V22.27zM7.782 22.27H12.256V14.438C12.256 12.82 13.535 11.529 15.144 11.529 16.748 11.529 18.026 12.82 18.026 14.438V22.27H22.5V13.606C22.5 10.221 19.85 7.625 16.537 7.625 13.223 7.625 10.573 10.221 10.573 13.606V22.27H7.782V22.27z" fill="white"/>
    </g>
</svg>
